<svg id="Layer_1" data-name="Layer 1" xmlns="http://www.w3.org/2000/svg" xmlns:xlink="http://www.w3.org/1999/xlink" viewBox="0 0 512 512"><defs><linearGradient id="linear-gradient" x1="256" y1="501.49" x2="256" y2="11.49" gradientUnits="userSpaceOnUse"><stop offset="0" stop-color="#aaaaa9"/><stop offset="1" stop-color="#dddfdd"/></linearGradient><linearGradient id="linear-gradient-2" x1="256" y1="353.37" x2="256" y2="155.47" gradientUnits="userSpaceOnUse"><stop offset="0" stop-color="#771314"/><stop offset="1" stop-color="#d82027"/></linearGradient></defs><title>record</title><path d="M255.85,501c135.09,0,245-110.21,245-245S390.94,11,255.85,11C121.06,11,11.15,121.21,11.15,256S121.06,501,255.85,501Z" fill-rule="evenodd" fill="url(#linear-gradient)"/><path d="M255.85,26.11c123.54,0,224,100.13,224,223.67,0,2.07-.3,4.15-.3,6.22C476.26,135.43,377.32,38.55,255.85,38.55,134.68,38.55,35.74,135.43,32.48,256a43.62,43.62,0,0,1-.3-6.22C32.18,126.24,132.61,26.11,255.85,26.11Z" fill="#eff0ef" fill-rule="evenodd"/><path d="M255.85,354.95c54.81,0,99.24-44.44,99.24-98.95s-44.44-98.95-99.24-98.95a98.95,98.95,0,0,0,0,197.89Z" fill-rule="evenodd" fill="url(#linear-gradient-2)"/></svg>